<?xml version="1.0" encoding="utf-8"?>
<!-- Generator: Adobe Illustrator 24.0.1, SVG Export Plug-In . SVG Version: 6.00 Build 0)  -->
<svg version="1.1" id="Layer_1" xmlns="http://www.w3.org/2000/svg" xmlns:xlink="http://www.w3.org/1999/xlink" x="0px" y="0px"
	 viewBox="0 0 198.43 56.69" style="enable-background:new 0 0 198.43 56.69;" xml:space="preserve">
<style type="text/css">
	.st0{fill-rule:evenodd;clip-rule:evenodd;fill:url(#SVGID_1_);}
	.st1{fill-rule:evenodd;clip-rule:evenodd;fill:url(#SVGID_2_);}
</style>
<g>
	<g>
		<path d="M73.84,31.67l-2.56,20.8h-4.67l2.13-17.35h-4.02c-0.45,2.56-0.9,4.78-1.37,6.64c-0.47,1.86-0.95,3.45-1.44,4.75
			c-0.49,1.3-1.01,2.36-1.54,3.17c-0.53,0.81-1.07,1.43-1.64,1.88c-0.56,0.45-1.14,0.75-1.74,0.91c-0.6,0.16-1.22,0.24-1.86,0.24
			c-0.8,0-1.36-0.07-1.67-0.21c-0.31-0.14-0.45-0.35-0.41-0.63l0.36-2.82h1.13c0.18,0,0.38-0.02,0.59-0.06
			c0.21-0.04,0.43-0.15,0.67-0.31c0.23-0.17,0.48-0.41,0.73-0.74c0.25-0.32,0.51-0.77,0.78-1.34c0.27-0.57,0.54-1.27,0.82-2.12
			c0.28-0.85,0.57-1.87,0.86-3.07c0.3-1.2,0.59-2.6,0.89-4.21c0.3-1.61,0.6-3.45,0.9-5.52H73.84z"/>
		<path d="M89.58,35.24h-7.7l-0.63,5.03h5.9l-0.46,3.46h-5.87l-0.63,5.16h7.76l-0.46,3.59H75.06l2.57-20.82h12.4L89.58,35.24z"/>
		<path d="M104.61,35.13h-7.47l-2.12,17.35h-4.67l2.56-20.8h12.15L104.61,35.13z"/>
		<path d="M111.1,40.16h1.61c0.32,0,0.61-0.07,0.86-0.2c0.25-0.13,0.5-0.38,0.74-0.73l4.07-6.39c0.26-0.34,0.55-0.63,0.88-0.85
			s0.71-0.34,1.14-0.34h4l-5.56,8.23c-0.28,0.37-0.59,0.68-0.93,0.93c-0.34,0.25-0.71,0.45-1.11,0.6c0.59,0.17,1.07,0.45,1.45,0.83
			s0.71,0.91,0.99,1.6l3.07,8.63h-4.26c-0.42,0-0.75-0.11-1.01-0.33c-0.25-0.22-0.47-0.54-0.65-0.97l-2.19-6.6
			c-0.16-0.41-0.36-0.68-0.6-0.82c-0.24-0.14-0.56-0.21-0.97-0.21h-1.96l-1.1,8.93h-4.64l2.56-20.82h4.64L111.1,40.16z"/>
		<path d="M143.86,40.73c0,1.12-0.13,2.2-0.39,3.23c-0.26,1.03-0.63,1.99-1.11,2.87c-0.48,0.89-1.06,1.69-1.74,2.41
			c-0.68,0.72-1.45,1.34-2.3,1.85c-0.85,0.51-1.77,0.9-2.76,1.19c-0.99,0.28-2.04,0.42-3.13,0.42c-1.37,0-2.6-0.24-3.69-0.72
			c-1.09-0.48-2.02-1.14-2.78-1.97c-0.76-0.83-1.35-1.81-1.75-2.94c-0.41-1.13-0.61-2.35-0.61-3.65c0-1.12,0.13-2.2,0.39-3.24
			c0.26-1.03,0.63-1.99,1.11-2.88c0.48-0.89,1.06-1.69,1.75-2.42c0.69-0.72,1.45-1.34,2.3-1.85s1.77-0.9,2.76-1.19
			c0.99-0.28,2.04-0.42,3.14-0.42c1.36,0,2.59,0.24,3.68,0.72c1.09,0.48,2.01,1.14,2.77,1.98c0.76,0.84,1.34,1.82,1.74,2.96
			C143.66,38.22,143.86,39.44,143.86,40.73z M139.09,40.85c0-0.86-0.1-1.64-0.31-2.34c-0.21-0.7-0.51-1.3-0.9-1.8
			c-0.39-0.5-0.88-0.89-1.45-1.16c-0.57-0.27-1.22-0.41-1.94-0.41c-0.95,0-1.8,0.2-2.56,0.59c-0.75,0.4-1.39,0.95-1.92,1.66
			c-0.53,0.71-0.93,1.57-1.21,2.58s-0.42,2.12-0.42,3.34c0,0.86,0.1,1.63,0.3,2.33c0.2,0.7,0.49,1.29,0.88,1.79
			c0.39,0.5,0.86,0.88,1.44,1.15c0.57,0.27,1.22,0.41,1.96,0.41c0.95,0,1.81-0.19,2.57-0.59c0.76-0.39,1.4-0.94,1.93-1.66
			c0.53-0.71,0.94-1.57,1.22-2.57C138.95,43.17,139.09,42.06,139.09,40.85z"/>
	</g>
	<g>
		<path d="M75.8,26.01h-4.69l2.13-17.35H66.3l-2.13,17.35h-4.67l2.56-20.8h16.3L75.8,26.01z"/>
		<path d="M85.07,18.99l-0.86,7.02h-4.63l2.54-20.82h6.89c1.24,0,2.3,0.15,3.18,0.45c0.88,0.3,1.6,0.71,2.17,1.24
			c0.57,0.53,0.98,1.15,1.25,1.87c0.27,0.72,0.4,1.49,0.4,2.32c0,1.13-0.17,2.18-0.52,3.15c-0.35,0.97-0.88,1.8-1.59,2.51
			c-0.71,0.71-1.62,1.26-2.71,1.66c-1.1,0.4-2.39,0.6-3.89,0.6H85.07z M86.36,8.66l-0.84,6.83h2.24c0.67,0,1.23-0.1,1.68-0.29
			c0.45-0.19,0.82-0.47,1.1-0.83c0.28-0.36,0.48-0.78,0.61-1.28c0.12-0.5,0.19-1.04,0.19-1.63c0-0.41-0.05-0.79-0.16-1.13
			c-0.11-0.34-0.28-0.64-0.51-0.89C90.43,9.2,90.14,9,89.79,8.87c-0.35-0.14-0.76-0.21-1.23-0.21H86.36z"/>
		<path d="M117.06,14.26c0,1.12-0.13,2.2-0.39,3.23c-0.26,1.03-0.63,1.99-1.11,2.87c-0.48,0.89-1.06,1.69-1.74,2.41
			c-0.68,0.72-1.45,1.34-2.3,1.85s-1.77,0.9-2.76,1.19c-0.99,0.28-2.04,0.42-3.13,0.42c-1.37,0-2.6-0.24-3.69-0.72
			c-1.09-0.48-2.02-1.14-2.78-1.97c-0.76-0.83-1.35-1.81-1.75-2.94c-0.41-1.13-0.61-2.35-0.61-3.65c0-1.12,0.13-2.2,0.39-3.24
			c0.26-1.03,0.63-1.99,1.11-2.88c0.48-0.89,1.06-1.69,1.75-2.42c0.69-0.72,1.45-1.34,2.3-1.85s1.77-0.9,2.76-1.19
			c0.99-0.28,2.04-0.42,3.14-0.42c1.36,0,2.59,0.24,3.68,0.72c1.09,0.48,2.01,1.14,2.77,1.98c0.76,0.84,1.34,1.82,1.74,2.96
			C116.86,11.75,117.06,12.96,117.06,14.26z M112.29,14.37c0-0.86-0.1-1.64-0.31-2.34c-0.21-0.7-0.51-1.3-0.9-1.8
			s-0.88-0.89-1.45-1.16c-0.57-0.27-1.22-0.41-1.94-0.41c-0.95,0-1.8,0.2-2.56,0.59c-0.75,0.4-1.39,0.95-1.92,1.66
			c-0.53,0.71-0.93,1.57-1.21,2.58s-0.42,2.12-0.42,3.34c0,0.86,0.1,1.63,0.3,2.33c0.2,0.7,0.49,1.29,0.88,1.79
			c0.39,0.5,0.86,0.88,1.44,1.15c0.57,0.27,1.22,0.41,1.96,0.41c0.95,0,1.81-0.19,2.57-0.59c0.76-0.39,1.4-0.94,1.93-1.66
			c0.53-0.71,0.94-1.57,1.22-2.57C112.15,16.7,112.29,15.59,112.29,14.37z"/>
		<path d="M134.69,26.01h-4.69l2.13-17.35h-6.94l-2.13,17.35h-4.67l2.56-20.8h16.3L134.69,26.01z"/>
		<path d="M142.23,22.53c0.2-0.03,0.39-0.1,0.58-0.2c0.19-0.1,0.37-0.26,0.54-0.46c0.17-0.2,0.36-0.47,0.56-0.8l0.76-1.36
			L138.73,5.2H143c0.4,0,0.7,0.09,0.91,0.28c0.21,0.19,0.38,0.43,0.5,0.74l1.89,6.49c0.16,0.52,0.31,1.04,0.44,1.55
			c0.13,0.51,0.24,1.03,0.31,1.55c0.21-0.51,0.44-1.03,0.69-1.54c0.25-0.51,0.51-1.03,0.79-1.56l3.14-6.49
			c0.15-0.25,0.37-0.48,0.64-0.69c0.28-0.21,0.61-0.32,1-0.32h3.94L147.37,23c-0.38,0.66-0.77,1.19-1.16,1.61
			c-0.39,0.41-0.8,0.74-1.21,0.99c-0.41,0.24-0.82,0.41-1.23,0.5c-0.41,0.09-0.82,0.14-1.23,0.14c-0.87,0-1.5-0.09-1.89-0.26
			s-0.57-0.48-0.52-0.91l0.31-2.49h1.13C141.81,22.58,142.03,22.56,142.23,22.53z"/>
		<path d="M164.53,22.4c0.52,0,0.98-0.04,1.36-0.12c0.39-0.08,0.72-0.18,0.99-0.31c0.28-0.12,0.51-0.26,0.7-0.41
			c0.19-0.15,0.36-0.28,0.51-0.41c0.15-0.12,0.3-0.23,0.43-0.31c0.13-0.08,0.28-0.12,0.43-0.12c0.15,0,0.28,0.03,0.38,0.08
			c0.1,0.05,0.17,0.11,0.22,0.18l1.63,1.96c-0.91,1.08-1.98,1.89-3.22,2.45c-1.24,0.56-2.66,0.84-4.24,0.84
			c-1.32,0-2.48-0.23-3.49-0.69c-1.01-0.46-1.87-1.1-2.57-1.91c-0.69-0.81-1.22-1.77-1.58-2.88c-0.36-1.11-0.54-2.31-0.54-3.59
			c0-1.19,0.13-2.32,0.4-3.39c0.27-1.07,0.64-2.05,1.13-2.96c0.48-0.9,1.07-1.72,1.75-2.44c0.68-0.72,1.43-1.34,2.26-1.84
			c0.83-0.5,1.72-0.89,2.67-1.16c0.95-0.27,1.95-0.41,2.99-0.41c0.78,0,1.49,0.07,2.14,0.22c0.64,0.15,1.22,0.35,1.74,0.61
			c0.52,0.26,0.98,0.57,1.39,0.94c0.41,0.36,0.77,0.76,1.07,1.2l-1.63,1.89c-0.11,0.13-0.25,0.25-0.4,0.36
			c-0.15,0.1-0.35,0.16-0.6,0.16c-0.16,0-0.31-0.04-0.44-0.11c-0.13-0.08-0.27-0.17-0.41-0.28c-0.14-0.11-0.29-0.23-0.46-0.36
			c-0.17-0.13-0.38-0.25-0.62-0.36c-0.24-0.11-0.52-0.2-0.85-0.28c-0.33-0.08-0.72-0.11-1.16-0.11c-0.88,0-1.69,0.19-2.45,0.56
			c-0.76,0.37-1.41,0.9-1.97,1.59c-0.56,0.69-0.99,1.53-1.31,2.51c-0.32,0.99-0.47,2.09-0.47,3.31c0,0.89,0.11,1.68,0.32,2.37
			c0.22,0.7,0.51,1.28,0.88,1.76c0.37,0.48,0.81,0.85,1.33,1.1C163.37,22.28,163.93,22.4,164.53,22.4z"/>
		<path d="M179.22,13.69h1.62c0.32,0,0.61-0.07,0.86-0.2c0.25-0.13,0.5-0.38,0.74-0.73l4.07-6.39c0.26-0.34,0.55-0.63,0.88-0.85
			c0.33-0.22,0.71-0.34,1.14-0.34h4l-5.56,8.23c-0.28,0.37-0.59,0.68-0.93,0.93c-0.34,0.25-0.72,0.45-1.11,0.6
			c0.59,0.17,1.07,0.45,1.45,0.83c0.38,0.38,0.71,0.91,0.99,1.6l3.07,8.63h-4.26c-0.42,0-0.76-0.11-1.01-0.33
			c-0.25-0.22-0.47-0.54-0.65-0.97l-2.18-6.6c-0.16-0.41-0.36-0.68-0.6-0.82c-0.24-0.14-0.56-0.21-0.97-0.21h-1.96l-1.1,8.93h-4.64
			l2.56-20.82h4.64L179.22,13.69z"/>
	</g>
	<g>
		<linearGradient id="SVGID_1_" gradientUnits="userSpaceOnUse" x1="11.0911" y1="1.5148" x2="37.7805" y2="28.2041">
			<stop  offset="0" style="stop-color:#2AA9E1"/>
			<stop  offset="0.5487" style="stop-color:#AE7EAF"/>
			<stop  offset="1" style="stop-color:#DB257C"/>
		</linearGradient>
		<path class="st0" d="M33.97,18.43c0.84,0,1.51,0.68,1.51,1.52c0,0.84-0.68,1.51-1.51,1.51s-1.52-0.68-1.52-1.51
			C32.45,19.11,33.13,18.43,33.97,18.43L33.97,18.43z M33.97,13.99c0.84,0,1.51,0.68,1.51,1.52c0,0.84-0.68,1.51-1.51,1.51
			s-1.52-0.68-1.52-1.51C32.45,14.67,33.13,13.99,33.97,13.99L33.97,13.99z M29.53,22.88c0.84,0,1.51,0.68,1.51,1.52
			c0,0.84-0.68,1.51-1.51,1.51s-1.52-0.68-1.52-1.51C28.01,23.56,28.69,22.88,29.53,22.88L29.53,22.88z M29.53,18.43
			c0.84,0,1.51,0.68,1.51,1.52c0,0.84-0.68,1.51-1.51,1.51s-1.52-0.68-1.52-1.51C28.01,19.11,28.69,18.43,29.53,18.43L29.53,18.43z
			 M29.53,13.99c0.84,0,1.51,0.68,1.51,1.52c0,0.84-0.68,1.51-1.51,1.51s-1.52-0.68-1.52-1.51C28.01,14.67,28.69,13.99,29.53,13.99
			L29.53,13.99z M29.53,9.55c0.84,0,1.51,0.68,1.51,1.52s-0.68,1.52-1.51,1.52s-1.52-0.68-1.52-1.52S28.69,9.55,29.53,9.55
			L29.53,9.55z M25.08,22.88c0.84,0,1.52,0.68,1.52,1.52c0,0.84-0.68,1.51-1.52,1.51s-1.51-0.68-1.51-1.51
			C23.57,23.56,24.25,22.88,25.08,22.88L25.08,22.88z M25.08,18.43c0.84,0,1.52,0.68,1.52,1.52c0,0.84-0.68,1.51-1.52,1.51
			s-1.51-0.68-1.51-1.51C23.57,19.11,24.25,18.43,25.08,18.43L25.08,18.43z M25.08,13.99c0.84,0,1.52,0.68,1.52,1.52
			c0,0.84-0.68,1.51-1.52,1.51s-1.51-0.68-1.51-1.51C23.57,14.67,24.25,13.99,25.08,13.99L25.08,13.99z M25.08,9.55
			c0.84,0,1.52,0.68,1.52,1.51s-0.68,1.52-1.52,1.52s-1.51-0.68-1.51-1.52S24.25,9.55,25.08,9.55L25.08,9.55z M25.08,5.11
			c0.84,0,1.52,0.68,1.52,1.51c0,0.84-0.68,1.52-1.52,1.52s-1.51-0.68-1.51-1.52C23.57,5.78,24.25,5.11,25.08,5.11L25.08,5.11z
			 M20.64,18.43c0.84,0,1.52,0.68,1.52,1.52c0,0.84-0.68,1.51-1.52,1.51c-0.84,0-1.51-0.68-1.51-1.51
			C19.13,19.11,19.8,18.43,20.64,18.43L20.64,18.43z M20.64,13.99c0.84,0,1.52,0.68,1.52,1.52c0,0.84-0.68,1.51-1.52,1.51
			c-0.84,0-1.51-0.68-1.51-1.51C19.13,14.67,19.8,13.99,20.64,13.99L20.64,13.99z M20.64,9.55c0.84,0,1.52,0.68,1.52,1.51
			s-0.68,1.52-1.52,1.52c-0.84,0-1.51-0.68-1.51-1.52S19.8,9.55,20.64,9.55L20.64,9.55z M20.64,5.11c0.84,0,1.52,0.68,1.52,1.51
			c0,0.84-0.68,1.52-1.52,1.52c-0.84,0-1.51-0.68-1.51-1.52C19.13,5.78,19.8,5.11,20.64,5.11L20.64,5.11z M16.2,13.99
			c0.84,0,1.52,0.68,1.52,1.52c0,0.84-0.68,1.51-1.52,1.51c-0.84,0-1.51-0.68-1.51-1.51C14.68,14.67,15.36,13.99,16.2,13.99
			L16.2,13.99z M16.2,9.55c0.84,0,1.52,0.68,1.52,1.52s-0.68,1.52-1.52,1.52c-0.84,0-1.51-0.68-1.51-1.52S15.36,9.55,16.2,9.55
			L16.2,9.55z M16.2,5.11c0.84,0,1.52,0.68,1.52,1.51c0,0.84-0.68,1.52-1.52,1.52c-0.84,0-1.51-0.68-1.51-1.52
			C14.68,5.78,15.36,5.11,16.2,5.11L16.2,5.11z M11.75,9.55c0.84,0,1.52,0.68,1.52,1.51s-0.68,1.52-1.52,1.52
			c-0.84,0-1.51-0.68-1.51-1.52S10.92,9.55,11.75,9.55L11.75,9.55z M11.75,5.11c0.84,0,1.52,0.68,1.52,1.51
			c0,0.84-0.68,1.52-1.52,1.52c-0.84,0-1.51-0.68-1.51-1.52C10.24,5.78,10.92,5.11,11.75,5.11L11.75,5.11z M7.31,5.11
			c0.84,0,1.52,0.68,1.52,1.51c0,0.84-0.68,1.52-1.52,1.52S5.8,7.46,5.8,6.62C5.8,5.78,6.47,5.11,7.31,5.11L7.31,5.11z"/>
		<linearGradient id="SVGID_2_" gradientUnits="userSpaceOnUse" x1="9.4485" y1="52.2812" x2="44.9986" y2="16.7312">
			<stop  offset="0" style="stop-color:#0079C0"/>
			<stop  offset="1" style="stop-color:#2AA9E1"/>
		</linearGradient>
		<path class="st1" d="M7.32,52.56h17.76c0.42,0,0.78-0.15,1.07-0.45l17.77-17.77c3.03-3.03,3.03-7.99,0-11.02L32.9,12.29
			c3.03,3.03,3.03,8,0,11.03L6.25,49.97C5.29,50.93,5.97,52.56,7.32,52.56L7.32,52.56z"/>
	</g>
</g>
</svg>
