<svg xmlns="http://www.w3.org/2000/svg" xmlns:xlink="http://www.w3.org/1999/xlink" width="95.108" height="95.108" viewBox="0 0 95.108 95.108">
  <defs>
    <linearGradient id="linear-gradient" y1="0.5" x2="1" y2="0.5" gradientUnits="objectBoundingBox">
      <stop offset="0" stop-color="#0068b5"/>
      <stop offset="1" stop-color="#009adb"/>
    </linearGradient>
  </defs>
  <g id="Group_66" data-name="Group 66" transform="translate(-429.228 -3093.165)">
    <circle id="Ellipse_9" data-name="Ellipse 9" cx="47.554" cy="47.554" r="47.554" transform="translate(429.228 3093.165)" fill="url(#linear-gradient)"/>
    <g id="Group_65" data-name="Group 65">
      <path id="Path_4" data-name="Path 4" d="M504.812,3141.554q-2.495-3.968-5.009-7.921-1.3-2.054-2.6-4.106a1.225,1.225,0,0,0-1.142-.635h-.02c-1.469.013-2.935.011-4.4.008h-2.481v-3.228c0-1.088-.352-1.437-1.445-1.437h-8.893q-14.451,0-28.9-.008a1.415,1.415,0,0,0-1.439.734v22.621a1.39,1.39,0,0,0,1.448.714c.712-.012,1.422-.011,2.151-.007l1.155,0v1.285c0,.693,0,1.365,0,2.037,0,1.134.285,1.411,1.434,1.414.224,0,.449,0,.673.006.544.008,1.108.015,1.653-.017l.1,0a.9.9,0,0,1,.927.71,5.486,5.486,0,0,0,5.051,3.49h.013a5.428,5.428,0,0,0,5.051-3.5.926.926,0,0,1,1.026-.693h.006c7.733.015,14.543.015,20.817,0h.006a1,1,0,0,1,1.094.747,5.3,5.3,0,0,0,4.935,3.43c.1,0,.206,0,.311-.009a5.361,5.361,0,0,0,4.963-3.664.893.893,0,0,1,.678-.473c.4-.028.808-.023,1.2-.021.235,0,.469.005.7,0,.885-.015,1.214-.351,1.214-1.239l0-1.292c0-2.623.006-5.336-.013-8A1.878,1.878,0,0,0,504.812,3141.554Zm-47.286,9.465h-2.267v-2.693H458.6Zm7.972,3.166a3.429,3.429,0,0,1-2.43,1h-.023a3.449,3.449,0,0,1-3.408-3.478,3.4,3.4,0,0,1,3.444-3.409h.023a3.439,3.439,0,0,1,2.394,5.886Zm-14.988-7.948V3143.2h.395c8.3,0,17.273,0,17.542-.018a1.026,1.026,0,0,0,.867-.979.988.988,0,0,0-.848-.95c-.4-.034-16.415-.046-17.75-.046h-.2v-9.91h17.3a1.778,1.778,0,0,0,1.282-.378.829.829,0,0,0,.217-.633c-.015-.418-.186-.974-1.5-.974h-17.3v-3.009h36.581v3.009h-.384c-.9,0-4.775,0-6.645.005a2.536,2.536,0,0,0-.808.1.958.958,0,0,0-.578,1.034.976.976,0,0,0,1.024.836c1.935.016,6.052.016,7.008.012h.388v9.91h-.412c-.951,0-4.743,0-6.58.006a2.6,2.6,0,0,0-.9.133.953.953,0,0,0-.524,1.016.965.965,0,0,0,.927.824c.582.021,3.748.017,5.844.015h1.632v3.033Zm36.593,4.769H468.614l-1.068-2.676H487.1Zm11.787-15.045c.874,1.358,1.739,2.721,2.624,4.118l.862,1.357h-7.243v-5.787h.907c.795,0,1.567,0,2.338.011A.7.7,0,0,1,498.89,3135.961Zm-.314,18.191a3.439,3.439,0,0,1-2.443,1.034h-.007a3.444,3.444,0,1,1-.014-6.888h.007a3.462,3.462,0,0,1,3.465,3.425A3.408,3.408,0,0,1,498.576,3154.152Zm4.47-3.16-.362.025a2.513,2.513,0,0,0-.273.024,1.772,1.772,0,0,1-.231.018c-.439,0-.691-.239-.822-.764a5.416,5.416,0,0,0-5.235-4.02h-.02a5.437,5.437,0,0,0-5.235,4.057c-.207.791-.378.775-1.506.668l-.182-.018v-20.027l.361-.026c.127-.01.251-.02.375-.02h1.725c1.149,0,2.3,0,3.447-.009a.936.936,0,0,1,.937.512c.248.434.526.865.821,1.321.127.2.26.4.4.617l.195.308h-2.425c-1.816,0-1.9.088-1.9,1.886v1.876q0,2.344,0,4.69c0,1.037.335,1.371,1.374,1.373q2.739.009,5.482,0h3.081Z" fill="#fff"/>
      <path id="Path_5" data-name="Path 5" d="M474.246,3131.494a1.186,1.186,0,1,1,1.212-1.222A1.175,1.175,0,0,1,474.246,3131.494Z" fill="#fff"/>
      <path id="Path_6" data-name="Path 6" d="M474.21,3141.023a1.19,1.19,0,1,1-1.226,1.216A1.182,1.182,0,0,1,474.21,3141.023Z" fill="#fff"/>
    </g>
  </g>
</svg>
