<svg xmlns="http://www.w3.org/2000/svg" xmlns:xlink="http://www.w3.org/1999/xlink" width="95.108" height="95.108" viewBox="0 0 95.108 95.108">
  <defs>
    <linearGradient id="linear-gradient" y1="0.5" x2="1" y2="0.5" gradientUnits="objectBoundingBox">
      <stop offset="0" stop-color="#0068b5"/>
      <stop offset="1" stop-color="#009adb"/>
    </linearGradient>
  </defs>
  <g id="Group_104" data-name="Group 104" transform="translate(-917.572 -3093.25)">
    <circle id="Ellipse_13" data-name="Ellipse 13" cx="47.554" cy="47.554" r="47.554" transform="translate(917.572 3093.25)" fill="url(#linear-gradient)"/>
    <g id="Group_103" data-name="Group 103" transform="translate(-2)">
      <path id="Path_23" data-name="Path 23" d="M996.482,3140.109q-.453-2.094-.9-4.191-.828-3.87-1.672-7.739a5.266,5.266,0,0,0-5.424-4.344q-2.3,0-4.6,0H980.7v-1.616l1.271,0c.763,0,1.515,0,2.267,0a.9.9,0,0,0,.98-.821.785.785,0,0,0-.191-.621,1.282,1.282,0,0,0-.963-.37c-1.387-.016-2.751-.016-4.056,0-.847.011-1.151.325-1.167,1.2-.008.444-.006.887,0,1.342l0,.887-43.405,0a3.1,3.1,0,0,0-.471.014.918.918,0,0,0-.889,1.04,7.633,7.633,0,0,0,.074.8l.312,2.843q.315,2.9.634,5.8.127,1.152.249,2.3c.216,2.027.439,4.122.711,6.173a8.119,8.119,0,0,0,2.639,5.457.969.969,0,0,1,.309,1.007c-.026.22-.059.443-.091.665a7.269,7.269,0,0,0-.111,2.119,6.338,6.338,0,0,0,4.8,5.451,6.526,6.526,0,0,0,6.974-2.348,1.753,1.753,0,0,0,.144-.238l.283-.487.224.308a6.579,6.579,0,0,0,7.524,2.686c3.306-1.162,4.87-3.629,4.649-7.331l-.016-.264H977.8l-.037.283a6.669,6.669,0,0,0,6.273,7.626,6.382,6.382,0,0,0,4.4-1.436,6.624,6.624,0,0,0,2.469-6.25l-.028-.275h.277c.409,0,.811,0,1.209,0,.945-.007,1.837-.011,2.742.016a1.637,1.637,0,0,0,1.5-.575l-.012-8.861A.824.824,0,0,1,996.482,3140.109Zm-51.153,15.817h-.069a4.614,4.614,0,0,1-3.244-1.334,4.914,4.914,0,0,1-1.463-3.451,4.762,4.762,0,0,1,4.783-4.822h.009a4.9,4.9,0,0,1,3.482,1.471,4.584,4.584,0,0,1,1.331,3.334A4.791,4.791,0,0,1,945.329,3155.926Zm11.461,0h-.071a4.613,4.613,0,0,1-3.272-1.365,4.9,4.9,0,0,1-1.437-3.5,4.746,4.746,0,0,1,4.793-4.743h.02a4.9,4.9,0,0,1,3.459,1.463,4.6,4.6,0,0,1,1.335,3.32A4.776,4.776,0,0,1,956.79,3155.926Zm22.052-9.161c0,1.025-.166,1.192-1.186,1.192h-3.584q-5.375,0-10.751.008h-.008a1.08,1.08,0,0,1-1-.508,6.6,6.6,0,0,0-10.769-.37c-.052.069-.11.137-.182.222l-.293.35-.19-.251a6.668,6.668,0,0,0-5.209-2.9,6.568,6.568,0,0,0-5.429,2.361l-.16.177-.185-.152a5.092,5.092,0,0,1-1.733-3c-.288-1.409-.461-2.861-.627-4.264l-.022-.182c-.251-2.106-.481-4.215-.713-6.324l-.23-2.1c-.116-1.042-.229-2.085-.344-3.14l-.239-2.2H978.8l.024.436c.007.138.016.271.016.406Zm15.466-8.1-.476.038c-.127.012-.248.023-.369.023q-2.371,0-4.745,0l-2.761,0c-1.354,0-1.883-.525-1.886-1.866q0-2.25,0-4.5v-1.285c0-.128.008-.254.016-.392l.024-.431H992.5Zm-6.612,15.869a4.719,4.719,0,0,1-3.355,1.408h-.018a4.88,4.88,0,0,1-3.423-1.455,4.691,4.691,0,0,1-1.386-3.347,4.847,4.847,0,0,1,1.437-3.46,4.777,4.777,0,0,1,3.324-1.358h.056a4.744,4.744,0,0,1,4.791,4.766A4.813,4.813,0,0,1,987.7,3154.531Zm7.062-12.333-.548,0c-.2-.005-.4-.007-.6.006-.674.042-1.072.391-1.063.934.012.749.687.873,1.088.88.172,0,.341,0,.527,0h.563v3.94h-1.892c-.782,0-1.563,0-2.345-.014a.8.8,0,0,1-.577-.388,6.639,6.639,0,0,0-8.582-2.352.761.761,0,0,1-.23.069l-.406.094V3125.72l.364-.037c.095-.01.181-.02.267-.021l1.863,0c1.863,0,3.724-.007,5.588.008a3.358,3.358,0,0,1,2.943,1.722,2.062,2.062,0,0,1,.186.376.808.808,0,0,1,.042.236l.044.386H988.57q-2.532,0-5.058,0c-.918,0-1.261.338-1.264,1.241l0,.677c-.011,2.218-.023,4.511.006,6.766a3.308,3.308,0,0,0,3.582,3.479q2.779,0,5.558,0h3.367Z" fill="#fff"/>
    </g>
    <path id="Path_24" data-name="Path 24" d="M944.673,3128.544a.958.958,0,0,0-.478-.139.776.776,0,0,0-.39.1,1.1,1.1,0,0,0-.491.976c-.013,1.429-.01,2.858-.007,4.288l0,1.8v1.892q0,2.16,0,4.321a1.216,1.216,0,0,0,.3.883.835.835,0,0,0,.611.228h.009c.569,0,.9-.39.9-1.064.008-1.166.007-2.331.005-3.5v-3.375q0-2.685,0-5.37C945.139,3129.033,945.009,3128.739,944.673,3128.544Z" fill="#fff"/>
    <path id="Path_25" data-name="Path 25" d="M958.9,3129.9a3.712,3.712,0,0,0-.048-.684.942.942,0,0,0-.863-.816.58.58,0,0,0-.061,0,.893.893,0,0,0-.839.964c-.009,1.582-.007,3.166-.006,4.749l0,3.378q0,2.241,0,4.481a.836.836,0,0,0,.662.9.784.784,0,0,0,.967-.394,1.965,1.965,0,0,0,.177-.777c.021-.479.017-.957.013-1.437l0-2.538Q958.9,3133.812,958.9,3129.9Z" fill="#fff"/>
    <path id="Path_26" data-name="Path 26" d="M952.017,3129.372a1,1,0,0,0-.913-.973h-.009a.934.934,0,0,0-.893,1.025c-.008,1.491-.007,2.982-.005,4.472v3.279l0,1.376c0,1.119,0,2.239.006,3.359a.885.885,0,0,0,.855.986.918.918,0,0,0,.958-.909,2.265,2.265,0,0,0,.009-.33V3129.7A2.576,2.576,0,0,0,952.017,3129.372Z" fill="#fff"/>
    <path id="Path_27" data-name="Path 27" d="M964.855,3128.4h-.009a.9.9,0,0,0-.867.8,4.908,4.908,0,0,0-.031.641v7.257l0,1.393c0,1.194,0,2.39.028,3.584a.812.812,0,0,0,.814.822.836.836,0,0,0,.925-.782,3.822,3.822,0,0,0,.045-.633q0-5.812,0-11.626a4.215,4.215,0,0,0-.052-.69A.9.9,0,0,0,964.855,3128.4Z" fill="#fff"/>
    <path id="Path_28" data-name="Path 28" d="M972.62,3132.315v-.742c0-.782,0-1.592-.032-2.385a.845.845,0,0,0-.817-.786l-.055,0a.907.907,0,0,0-.841.7,3.651,3.651,0,0,0-.071.742q-.008,5.811,0,11.625a3.638,3.638,0,0,0,.069.739.826.826,0,0,0,.945.687.921.921,0,0,0,.8-1.047c.008-1.427.007-2.855.006-4.283V3134.9Q972.623,3133.605,972.62,3132.315Z" fill="#fff"/>
    <path id="Path_29" data-name="Path 29" d="M947.084,3150.382a1.7,1.7,0,0,0-.446.914.492.492,0,0,1-.121.367c-.066.058-.131.124-.2.189a1.75,1.75,0,0,1-.719.512,1.188,1.188,0,0,1-.984-.141,1.312,1.312,0,0,1-.578-.921,1.357,1.357,0,0,1,1.266-1.516c.648-.128,1.012-.541.927-1.053a.932.932,0,0,0-1.019-.768c-.059,0-.122,0-.185.01a3.145,3.145,0,0,0,.3,6.275h.018a3.166,3.166,0,0,0,3.093-2.5c.124-.587.1-1.325-.693-1.508A.7.7,0,0,0,947.084,3150.382Z" fill="#fff"/>
    <path id="Path_30" data-name="Path 30" d="M985.675,3151.023c-.013.057-.023.113-.033.17a1.954,1.954,0,0,1-.1.4,1.3,1.3,0,0,1-2.517-.555c.042-.893.714-1.141,1.295-1.257.618-.124.969-.523.891-1.019a.913.913,0,0,0-1-.8c-.054,0-.11,0-.167.007a3.134,3.134,0,0,0-2.84,3.259,3.1,3.1,0,0,0,3.129,3.018h.01a3.145,3.145,0,0,0,3.139-2.976.954.954,0,0,0-.815-1.054A.922.922,0,0,0,985.675,3151.023Z" fill="#fff"/>
    <path id="Path_31" data-name="Path 31" d="M958.194,3150.9a1.088,1.088,0,0,0-.03.191.884.884,0,0,1-.164.493,2.191,2.191,0,0,1-.95.78,1.173,1.173,0,0,1-.971-.136,1.331,1.331,0,0,1-.586-.933,1.354,1.354,0,0,1,1.217-1.5c.414-.082,1.092-.33.977-1.071a.828.828,0,0,0-.332-.556,1.169,1.169,0,0,0-.7-.2,1.8,1.8,0,0,0-.289.023,3.144,3.144,0,0,0,.421,6.26h.01a3.193,3.193,0,0,0,2.279-.971,2.931,2.931,0,0,0,.854-2.151.909.909,0,0,0-.828-.917A.893.893,0,0,0,958.194,3150.9Z" fill="#fff"/>
  </g>
</svg>
