<svg xmlns="http://www.w3.org/2000/svg" xmlns:xlink="http://www.w3.org/1999/xlink" width="95.108" height="95.108" viewBox="0 0 95.108 95.108">
  <defs>
    <linearGradient id="linear-gradient" y1="0.5" x2="1" y2="0.5" gradientUnits="objectBoundingBox">
      <stop offset="0" stop-color="#0068b5"/>
      <stop offset="1" stop-color="#009adb"/>
    </linearGradient>
  </defs>
  <g id="Group_105" data-name="Group 105" transform="translate(-1410.099 -3093.25)">
    <g id="Group_82" data-name="Group 82">
      <circle id="Ellipse_14" data-name="Ellipse 14" cx="47.554" cy="47.554" r="47.554" transform="translate(1410.099 3093.25)" fill="url(#linear-gradient)"/>
    </g>
    <g id="Group_83" data-name="Group 83">
      <path id="Path_32" data-name="Path 32" d="M1433.4,3131.421c1.374-3.933,2.7-7.885,4.141-11.793a4.292,4.292,0,0,1,5.818-2.511q9.489,3.447,18.976,6.9,11.961,4.351,23.918,8.712a5.9,5.9,0,0,1,1.566.8,1.751,1.751,0,0,1,.089,2.869,6.142,6.142,0,0,1-1.312.826c-.794.4-1.612.762-2.484,1.169,1,.8.878,1.719.483,2.737-.714,1.835-1.363,3.695-2.04,5.545a1.779,1.779,0,0,1-2.572,1.228c-.47-.166-.939-.339-1.433-.518a4.465,4.465,0,0,1-2.964,1.977,4.748,4.748,0,0,1-2.528-.3q-6.965-2.533-13.926-5.074c-.4-.148-.63-.165-.914.245a4.632,4.632,0,0,1-2.842,1.9.912.912,0,0,0-.752.693c-.77,2.158-1.561,4.309-2.351,6.46a6.089,6.089,0,0,1-6.043,4.221q-3.5,0-7.005,0h-.652c0,.819,0,1.6,0,2.387a2.6,2.6,0,0,1-2.79,2.788c-.377,0-.756-.025-1.131.006a1.256,1.256,0,0,1-1.252-.543V3147.7a1.189,1.189,0,0,1,1.188-.555c.5.033,1.005.007,1.507.016a2.167,2.167,0,0,1,1.884.966,3.958,3.958,0,0,1,.57,1.628,23.634,23.634,0,0,1,.024,2.571c2.658,0,5.224,0,7.789,0a.992.992,0,0,0,1.006-.734c.838-2.322,1.69-4.639,2.517-6.964a.742.742,0,0,0-.077-.57,4.857,4.857,0,0,1-.868-3.152c.052-.537-.177-.7-.611-.856-3.955-1.425-7.9-2.871-11.853-4.3a4.306,4.306,0,0,1-2.571-2.226,12.368,12.368,0,0,1-.505-1.563Zm53.414,3.652-.014-.2c-.4-.178-.8-.381-1.209-.531q-15.646-5.692-31.3-11.376-5.8-2.109-11.607-4.225a2.563,2.563,0,0,0-3.519,1.505q-.632,1.6-1.166,3.234a2.515,2.515,0,0,0,1.47,3.224c.213.093.433.17.649.255.657.258.911.662.736,1.166-.188.538-.665.706-1.331.484a4.909,4.909,0,0,1-2.715-1.913c-.491,1.355-.95,2.6-1.39,3.844a2.579,2.579,0,0,0,1.669,3.572q18.321,6.668,36.644,13.324a2.61,2.61,0,0,0,3.641-1.711q.852-2.319,1.689-4.644a4.133,4.133,0,0,0,.1-.414c-.219.056-.373.1-.528.136a10.35,10.35,0,0,1-6.14-.215q-12.165-4.422-24.33-8.843a2.063,2.063,0,0,1-.531-.252.859.859,0,0,1,.674-1.527,4.588,4.588,0,0,1,.665.211q12.063,4.386,24.129,8.768a8.025,8.025,0,0,0,6.138-.22c2.245-.991,4.455-2.062,6.675-3.109A9.784,9.784,0,0,0,1486.813,3135.073Zm-35.384,10.516c-.058.148-.113.279-.162.412q-1.117,3.051-2.232,6.1a2.645,2.645,0,0,1-2.808,1.956H1438.6v1.672a.907.907,0,0,0,.18.041c2.55,0,5.1.037,7.651-.007a4.319,4.319,0,0,0,4.191-3.047c.459-1.242.9-2.492,1.35-3.737q.5-1.377,1-2.749Zm-16.262,3.3v12.045c1.43.084,1.682-.155,1.682-1.551v-3.449c0-1.976,0-3.953,0-5.929,0-.791-.33-1.107-1.115-1.116C1435.553,3148.883,1435.375,3148.885,1435.167,3148.885Zm21.622-5.743-6.1-2.217a3.409,3.409,0,0,0,2.315,3.438A3.287,3.287,0,0,0,1456.789,3143.142Zm26.377-3.251-.823-.3c-.631-.224-.832-.135-1.054.476q-.786,2.167-1.568,4.336c-.161.445-.321.89-.491,1.364l1.592.57Z" fill="#fff" stroke="#fff" stroke-linecap="round" stroke-linejoin="round" stroke-width="0.4"/>
      <path id="Path_33" data-name="Path 33" d="M1444.993,3130.616c-.833-.336-1.56-.586-2.244-.923a.727.727,0,0,1-.261-.958.7.7,0,0,1,.832-.531,13.769,13.769,0,0,1,2.1.768.654.654,0,0,1,.281.931A3.9,3.9,0,0,1,1444.993,3130.616Z" fill="#fff" stroke="#fff" stroke-linecap="round" stroke-linejoin="round" stroke-width="0.4"/>
    </g>
  </g>
</svg>
