<svg xmlns="http://www.w3.org/2000/svg" xmlns:xlink="http://www.w3.org/1999/xlink" width="130" height="130" viewBox="0 0 130 130">
  <defs>
    <linearGradient id="linear-gradient" y1="0.5" x2="1" y2="0.5" gradientUnits="objectBoundingBox">
      <stop offset="0" stop-color="#0068b5"/>
      <stop offset="1" stop-color="#009adb"/>
    </linearGradient>
  </defs>
  <g id="Group_80" data-name="Group 80" transform="translate(-897.081 -2059.323)">
    <circle id="Ellipse_12" data-name="Ellipse 12" cx="65" cy="65" r="65" transform="translate(897.081 2059.323)" fill="url(#linear-gradient)"/>
    <g id="Group_79" data-name="Group 79">
      <path id="Path_20" data-name="Path 20" d="M991.892,2112.921v30.972c-.042.127-.093.252-.122.382a6.387,6.387,0,0,1-6.074,5.084q-23.609.015-47.215,0a6.367,6.367,0,0,1-6.2-6.229q-.012-14.817-.009-29.633a1.893,1.893,0,0,1,.742-1.561c.842-.687,1.689-1.369,2.5-2.093a1.171,1.171,0,0,0,.359-.769c.028-2.328.014-4.657.017-6.985a4.042,4.042,0,0,1,4.173-4.187c3.1,0,6.21.01,9.315-.016a1.7,1.7,0,0,0,.978-.353c1.706-1.377,3.367-2.808,5.072-4.186,1.763-1.426,3.328-3.179,5.727-3.6h1.863a8.327,8.327,0,0,1,3.543,1.756c2.366,2.006,4.769,3.968,7.145,5.961a1.71,1.71,0,0,0,1.2.447c3.045-.024,6.089-.014,9.134-.012a4.045,4.045,0,0,1,4.249,4.222c0,2.037.058,4.075-.025,6.108a2.17,2.17,0,0,0,1.032,2.175,10.573,10.573,0,0,1,1.565,1.3A15.182,15.182,0,0,1,991.892,2112.921Zm-29.813-11.528H940.37c-.829,0-.991.16-.991.978q0,6.345-.008,12.688a.9.9,0,0,0,.358.785q10.15,8.4,20.285,16.827a2.932,2.932,0,0,0,4.148,0q10.117-8.4,20.241-16.79a.954.954,0,0,0,.395-.828c-.013-4.171-.008-8.342-.008-12.513,0-1.032-.11-1.144-1.119-1.144Zm22.684,44.454-16.96-11.622c-.558.459-1.062.883-1.576,1.295a6.378,6.378,0,0,1-8.285,0c-.526-.423-1.044-.857-1.575-1.293l-16.955,11.621Zm-48.966-28.7c-.017.2-.027.259-.027.317q0,12.712.005,25.426a8.111,8.111,0,0,0,.153,1.074l17.627-12.081C947.618,2126.957,941.749,2122.086,935.8,2117.148Zm52.381,26.769c.24-.71.369-25.28.149-26.73l-17.709,14.7Zm-32.69-46.059h13.205c-1.749-1.436-3.356-2.837-5.054-4.118a2.5,2.5,0,0,0-3.152.024C958.81,2095.043,957.216,2096.433,955.488,2097.858Z" fill="#fff" stroke="#0068b5" stroke-miterlimit="10" stroke-width="0.318"/>
      <path id="Path_21" data-name="Path 21" d="M962.08,2114.2h12.571a1.756,1.756,0,1,1,.007,3.491H949.516a1.756,1.756,0,1,1-.007-3.491Z" fill="#fff" stroke="#0068b5" stroke-miterlimit="10" stroke-width="0.318"/>
      <path id="Path_22" data-name="Path 22" d="M957.6,2110.708h-8.089a1.756,1.756,0,1,1-.006-3.491h16.177a1.756,1.756,0,1,1,.006,3.491Z" fill="#fff" stroke="#0068b5" stroke-miterlimit="10" stroke-width="0.318"/>
    </g>
  </g>
</svg>
