<svg xmlns="http://www.w3.org/2000/svg" xmlns:xlink="http://www.w3.org/1999/xlink" width="130" height="130" viewBox="0 0 130 130">
  <defs>
    <linearGradient id="linear-gradient" y1="0.5" x2="1" y2="0.5" gradientUnits="objectBoundingBox">
      <stop offset="0" stop-color="#0068b5"/>
      <stop offset="1" stop-color="#009adb"/>
    </linearGradient>
  </defs>
  <g id="Group_76" data-name="Group 76" transform="translate(-348.789 -2059.323)">
    <circle id="Ellipse_10" data-name="Ellipse 10" cx="65" cy="65" r="65" transform="translate(348.789 2059.323)" fill="url(#linear-gradient)"/>
    <g id="Group_75" data-name="Group 75">
      <path id="Path_7" data-name="Path 7" d="M424.971,2094.51a3.153,3.153,0,0,1,2.148,2.165,10.434,10.434,0,0,1,.151,1.33h2.6a6.367,6.367,0,0,1,6.577,5.518,5.033,5.033,0,0,1,.049.869q-.006,21.54-.018,43.079a6.432,6.432,0,0,1-5.515,6.6,5.2,5.2,0,0,1-.927.057q-16.273,0-32.548,0a6.351,6.351,0,0,1-6.413-6.425q0-21.51.017-43.021a6.424,6.424,0,0,1,5.5-6.618,7.139,7.139,0,0,1,1.217-.062c.849-.008,1.7,0,2.564,0a10.094,10.094,0,0,1,.071-1.035,3.1,3.1,0,0,1,2.28-2.46Zm-24.6,6.987c-.791,0-1.566.044-2.333-.009a3.1,3.1,0,0,0-3.424,3.387c.021,14.13-.024,28.26-.046,42.39,0,2.228,1.142,3.378,3.358,3.378,10.561,0,21.121-.018,31.682.018a3.14,3.14,0,0,0,3.351-3.352c-.018-14.168.025-28.337.048-42.506,0-.155,0-.311,0-.466a2.771,2.771,0,0,0-2.161-2.7,34.774,34.774,0,0,0-3.593-.19c-.016.234-.036.348-.03.46a3.043,3.043,0,0,1-3.223,3.106c-6.852-.06-13.7-.024-20.558-.025a2.9,2.9,0,0,1-3-2.461A9.018,9.018,0,0,1,400.373,2101.5Zm23.3-3.46H403.967v3.428h19.706Z" fill="#fff" stroke="#0068b5" stroke-miterlimit="10" stroke-width="0.318"/>
      <path id="Path_8" data-name="Path 8" d="M420.615,2137.6q3.056,0,6.111,0a1.749,1.749,0,1,1,0,3.49q-6.111,0-12.222,0a1.749,1.749,0,1,1,0-3.49Q417.559,2137.6,420.615,2137.6Z" fill="#fff" stroke="#0068b5" stroke-miterlimit="10" stroke-width="0.318"/>
      <path id="Path_9" data-name="Path 9" d="M420.547,2117.8h-5.94a1.758,1.758,0,1,1-.031-3.492h12.055a1.756,1.756,0,1,1-.027,3.491Q423.575,2117.8,420.547,2117.8Z" fill="#fff" stroke="#0068b5" stroke-miterlimit="10" stroke-width="0.318"/>
      <path id="Path_10" data-name="Path 10" d="M420.6,2129.447q-3.028,0-6.056,0a1.752,1.752,0,1,1-.027-3.491q6.057,0,12.114,0a1.753,1.753,0,1,1,.026,3.491Q423.631,2129.45,420.6,2129.447Z" fill="#fff" stroke="#0068b5" stroke-miterlimit="10" stroke-width="0.318"/>
      <path id="Path_11" data-name="Path 11" d="M402.892,2127.881c1.367-1.372,2.655-2.687,3.968-3.977a1.75,1.75,0,0,1,3.008.7,1.6,1.6,0,0,1-.411,1.664q-2.634,2.672-5.306,5.306a1.657,1.657,0,0,1-2.408.053c-.8-.733-1.567-1.506-2.306-2.3a1.732,1.732,0,0,1,.056-2.417,1.756,1.756,0,0,1,2.463-.016C402.268,2127.18,402.543,2127.509,402.892,2127.881Z" fill="#fff" stroke="#0068b5" stroke-miterlimit="10" stroke-width="0.318"/>
      <path id="Path_12" data-name="Path 12" d="M402.885,2139.533c1.381-1.386,2.669-2.7,3.984-3.991a1.746,1.746,0,0,1,3,.716,1.609,1.609,0,0,1-.421,1.662q-2.637,2.67-5.308,5.3a1.658,1.658,0,0,1-2.408.038c-.8-.735-1.567-1.5-2.305-2.3a1.732,1.732,0,0,1,.072-2.417,1.757,1.757,0,0,1,2.421-.038C402.251,2138.8,402.533,2139.154,402.885,2139.533Z" fill="#fff" stroke="#0068b5" stroke-miterlimit="10" stroke-width="0.318"/>
      <path id="Path_13" data-name="Path 13" d="M402.874,2115.373c1.365-1.372,2.622-2.66,3.915-3.911a2.463,2.463,0,0,1,1.073-.625,1.622,1.622,0,0,1,1.856.86,1.693,1.693,0,0,1-.3,2.082c-1.04,1.07-2.106,2.115-3.16,3.171-.658.658-1.309,1.323-1.976,1.971a1.757,1.757,0,0,1-2.711.01q-1.017-1-2.014-2.015a1.78,1.78,0,0,1-.07-2.548,1.754,1.754,0,0,1,2.546.06C402.322,2114.707,402.57,2115.028,402.874,2115.373Z" fill="#fff" stroke="#0068b5" stroke-miterlimit="10" stroke-width="0.318"/>
    </g>
  </g>
</svg>
