<svg xmlns="http://www.w3.org/2000/svg" xmlns:xlink="http://www.w3.org/1999/xlink" width="130" height="130" viewBox="0 0 130 130">
  <defs>
    <linearGradient id="linear-gradient" y1="0.5" x2="1" y2="0.5" gradientUnits="objectBoundingBox">
      <stop offset="0" stop-color="#0068b5"/>
      <stop offset="1" stop-color="#009adb"/>
    </linearGradient>
  </defs>
  <g id="Group_78" data-name="Group 78" transform="translate(-1445.374 -2059.323)">
    <circle id="Ellipse_11" data-name="Ellipse 11" cx="65" cy="65" r="65" transform="translate(1445.374 2059.323)" fill="url(#linear-gradient)"/>
    <g id="Group_77" data-name="Group 77">
      <path id="Path_14" data-name="Path 14" d="M1480.561,2104.374a14,14,0,0,1,1.028-2.308,5.28,5.28,0,0,1,4.625-2.337q11.994-.006,23.989,0,12.168,0,24.337,0a5.5,5.5,0,0,1,5.594,4.678,4.928,4.928,0,0,1,.05.869q0,15.869,0,31.737a5.469,5.469,0,0,1-5.526,5.548q-24.279.014-48.558,0a5.489,5.489,0,0,1-5.43-4.382,1.565,1.565,0,0,0-.109-.261Zm29.78,34.653h23.926c1.711,0,2.426-.723,2.426-2.449q0-15.429,0-30.859c0-1.731-.711-2.453-2.42-2.453h-47.794c-1.714,0-2.425.719-2.425,2.448v30.859c0,1.751.71,2.455,2.477,2.455Z" fill="#fff" stroke="#0068b5" stroke-miterlimit="10" stroke-width="0.318"/>
      <path id="Path_15" data-name="Path 15" d="M1494.3,2125.438a6.452,6.452,0,0,1,9.235-8.991,6.426,6.426,0,0,1,.529,8.868,32.235,32.235,0,0,1,2.335,2.309,8.637,8.637,0,0,1,1.984,5.466,1.8,1.8,0,0,1-1.971,2c-1.28.017-2.561,0-3.841,0h-10.419c-1.7,0-2.422-.859-2.23-2.543a9.283,9.283,0,0,1,4.237-7.013C1494.209,2125.5,1494.257,2125.469,1494.3,2125.438Zm10.208,6.077c-.409-2.151-3.053-4.035-5.493-3.933-2.481.1-4.982,1.989-5.21,3.933Zm-8.258-10.375a2.892,2.892,0,0,0,2.906,2.921,2.915,2.915,0,0,0,.011-5.83A2.888,2.888,0,0,0,1496.251,2121.14Z" fill="#fff" stroke="#0068b5" stroke-miterlimit="10" stroke-width="0.318"/>
      <path id="Path_16" data-name="Path 16" d="M1510.381,2110.756c-6.13,0-12.261.006-18.391-.013a2.772,2.772,0,0,1-1.267-.311,1.555,1.555,0,0,1-.805-1.673,1.677,1.677,0,0,1,1.254-1.454,3.117,3.117,0,0,1,.862-.1q18.333-.006,36.665,0a3.251,3.251,0,0,1,1.026.153,1.756,1.756,0,0,1,1.122,1.79,1.823,1.823,0,0,1-1.668,1.6c-.193.019-.388.008-.582.008Z" fill="#fff" stroke="#0068b5" stroke-miterlimit="10" stroke-width="0.318"/>
      <path id="Path_17" data-name="Path 17" d="M1522.544,2124.064q3.173,0,6.344,0a1.81,1.81,0,0,1,1.966,1.766,1.772,1.772,0,0,1-1.925,1.743q-6.4.015-12.8,0a1.752,1.752,0,0,1-1.9-1.759,1.8,1.8,0,0,1,1.977-1.749Q1519.372,2124.062,1522.544,2124.064Z" fill="#fff" stroke="#0068b5" stroke-miterlimit="10" stroke-width="0.318"/>
      <path id="Path_18" data-name="Path 18" d="M1522.541,2116.594c2.192,0,4.384,0,6.575,0a1.653,1.653,0,0,1,1.588,1.072,1.535,1.535,0,0,1-.371,1.863,2.068,2.068,0,0,1-1.227.538c-4.384.038-8.768.03-13.151.019a1.752,1.752,0,0,1-1.731-1.754,1.721,1.721,0,0,1,1.741-1.735C1518.157,2116.58,1520.349,2116.594,1522.541,2116.594Z" fill="#fff" stroke="#0068b5" stroke-miterlimit="10" stroke-width="0.318"/>
      <path id="Path_19" data-name="Path 19" d="M1520.741,2131.537c1.511,0,3.023-.012,4.534,0a1.769,1.769,0,0,1,1.8,1.5,1.733,1.733,0,0,1-1.051,1.874,1.874,1.874,0,0,1-.672.161c-3.12.011-6.24.028-9.359,0a1.761,1.761,0,0,1-1.756-1.492,1.729,1.729,0,0,1,1.012-1.847,2.571,2.571,0,0,1,.954-.189C1517.717,2131.526,1519.229,2131.537,1520.741,2131.537Z" fill="#fff" stroke="#0068b5" stroke-miterlimit="10" stroke-width="0.318"/>
    </g>
  </g>
</svg>
