<svg xmlns="http://www.w3.org/2000/svg" xmlns:xlink="http://www.w3.org/1999/xlink" width="37.958" height="44.587" viewBox="0 0 37.958 44.587">
  <defs>
    <linearGradient id="linear-gradient" x1="0.178" y1="-0.173" x2="1.077" y2="1.111" gradientUnits="objectBoundingBox">
      <stop offset="0" stop-color="#009adb"/>
      <stop offset="0.541" stop-color="#6d4d9e"/>
      <stop offset="1" stop-color="#cd0b69"/>
    </linearGradient>
    <linearGradient id="linear-gradient-2" x1="0.09" y1="0.993" x2="0.97" y2="0.11" gradientUnits="objectBoundingBox">
      <stop offset="0" stop-color="#0068b5"/>
      <stop offset="1" stop-color="#009adb"/>
    </linearGradient>
  </defs>
  <g id="Group_7" data-name="Group 7" transform="translate(-247.126 -22.329)">
    <path id="Path_2" data-name="Path 2" d="M273.594,34.848a1.423,1.423,0,1,1-1.425,1.425,1.422,1.422,0,0,1,1.425-1.425Zm0-4.174a1.423,1.423,0,1,1-1.425,1.425,1.422,1.422,0,0,1,1.425-1.425Zm-4.174,8.349a1.423,1.423,0,1,1-1.426,1.425,1.422,1.422,0,0,1,1.426-1.425Zm0-4.175a1.423,1.423,0,1,1-1.426,1.425,1.422,1.422,0,0,1,1.426-1.425Zm0-4.174a1.423,1.423,0,1,1-1.426,1.425,1.422,1.422,0,0,1,1.426-1.425Zm0-4.175a1.426,1.426,0,1,1-1.426,1.425A1.422,1.422,0,0,1,269.42,26.5Zm-4.175,12.524a1.423,1.423,0,1,1-1.421,1.425,1.426,1.426,0,0,1,1.421-1.425Zm0-4.175a1.423,1.423,0,1,1-1.421,1.425,1.426,1.426,0,0,1,1.421-1.425Zm0-4.174a1.423,1.423,0,1,1-1.421,1.425,1.426,1.426,0,0,1,1.421-1.425Zm0-4.17a1.423,1.423,0,1,1-1.421,1.42,1.422,1.422,0,0,1,1.421-1.42Zm0-4.175a1.423,1.423,0,1,1-1.421,1.421,1.423,1.423,0,0,1,1.421-1.421ZM261.07,34.848a1.423,1.423,0,1,1-1.42,1.425,1.427,1.427,0,0,1,1.42-1.425Zm0-4.174a1.423,1.423,0,1,1-1.42,1.425,1.427,1.427,0,0,1,1.42-1.425Zm0-4.17a1.423,1.423,0,1,1-1.42,1.42,1.419,1.419,0,0,1,1.42-1.42Zm0-4.175a1.423,1.423,0,1,1-1.42,1.421,1.423,1.423,0,0,1,1.42-1.421ZM256.9,30.674a1.423,1.423,0,1,1-1.421,1.425,1.426,1.426,0,0,1,1.421-1.425Zm0-4.175a1.426,1.426,0,1,1-1.421,1.425A1.43,1.43,0,0,1,256.9,26.5Zm0-4.17a1.423,1.423,0,1,1-1.421,1.421,1.423,1.423,0,0,1,1.421-1.421ZM252.721,26.5a1.423,1.423,0,1,1-1.42,1.42,1.419,1.419,0,0,1,1.42-1.42Zm0-4.175a1.423,1.423,0,1,1-1.42,1.421,1.423,1.423,0,0,1,1.42-1.421Zm-4.174,0a1.423,1.423,0,1,1-1.421,1.421,1.423,1.423,0,0,1,1.421-1.421Z" fill-rule="evenodd" fill="url(#linear-gradient)"/>
    <path id="Path_3" data-name="Path 3" d="M248.56,66.916h16.685a1.381,1.381,0,0,0,1.007-.418l16.7-16.7a7.35,7.35,0,0,0,0-10.358L272.587,29.078a7.347,7.347,0,0,1,0,10.363L247.549,64.479a1.427,1.427,0,0,0,1.011,2.437Z" fill-rule="evenodd" fill="url(#linear-gradient-2)"/>
  </g>
</svg>
